<?xml version="1.0" encoding="utf-8" ?>
<svg xmlns="http://www.w3.org/2000/svg" xmlns:xlink="http://www.w3.org/1999/xlink" width="1024" height="1024">
	<path fill="#26374F" transform="scale(2 2)" d="M133.178 121.629C138.929 126.991 145.13 132.607 149.986 138.789C145.36 142.023 140.732 146.35 136.858 150.448C131.519 144.98 126.116 139.53 120.93 133.917C124.661 129.724 128.856 125.2 133.178 121.629Z"/>
	<path fill="#26374F" transform="scale(2 2)" d="M379.231 120.645C383.101 123.833 388.609 128.762 391.49 132.826C385.916 138.85 379.974 144.537 374.277 150.448C370.918 147.047 363.884 141.763 361.589 138.789C367.572 132.852 373.5 126.825 379.231 120.645Z"/>
	<path fill="#FA6B44" transform="scale(2 2)" d="M362.973 397.753C365.934 400.855 368.337 404.509 370.793 408.014L381.251 423.208C384.774 428.377 389.11 432.557 388.943 439.194C388.734 447.552 381.265 454.411 372.885 453.857C362.52 453.172 357.309 442.194 351.977 434.735C347.235 428.103 342.3 421.566 337.681 414.853C346.438 409.46 354.748 403.955 362.973 397.753Z"/>
	<path fill="#FA6B44" transform="scale(2 2)" d="M148.41 396.295C152.067 398.206 168.733 410.35 172.982 413.518C172.203 416.165 152.819 445.612 150.259 448.63C141.721 458.695 123.774 453.601 123.196 439.795C122.952 433.972 126.009 429.999 128.995 425.284L136.548 413.526C139.89 408.416 144.372 400.69 148.41 396.295Z"/>
	<path fill="#26374F" transform="scale(2 2)" d="M245.498 78.1399C239.685 78.1345 232.167 79.2099 227.687 74.7423C220.694 67.7669 224.397 56.1671 234.218 54.4195C239.298 53.5157 249.147 54.1213 254.727 54.1363C263.389 54.1597 280.266 51.6367 286.317 58.5979C290.619 63.546 290.164 71.1772 285.003 75.3147C279.962 79.3555 272.483 78.114 266.445 78.1399L266.445 100.249C259.474 100.092 252.473 100.235 245.498 100.249C245.573 98.6945 245.646 97.1817 245.498 95.629L245.498 78.1399Z"/>
	<path fill="#FA6B44" transform="scale(2 2)" d="M379.231 120.645L378.958 120.419C370.027 112.955 356.008 98.4893 348.15 89.9459C346.301 87.9357 344.569 86.439 346.844 83.9722C352.814 77.4976 370.04 72.3319 378.241 72.1869C423.287 71.3903 449.141 115.438 428.492 155.719C427.171 158.296 425.682 162.438 422.454 163.045C419.147 162.19 408.524 149.909 405.645 147.053L396.499 137.932C394.827 136.26 393.008 134.638 391.49 132.826C388.609 128.762 383.101 123.833 379.231 120.645Z"/>
	<path fill="#FA6B44" transform="scale(2 2)" d="M120.93 133.917C114.098 139.606 106.102 147.943 99.7264 154.348C97.61 156.474 90.9138 165.4 87.545 162.857C82.3084 158.903 76.664 141.806 75.87 135.851C69.1078 85.13 126.748 53.2921 165.433 84.3439C170.699 88.5701 163.975 91.1714 159.525 95.6622C150.841 104.427 141.97 112.976 133.178 121.629C128.856 125.2 124.661 129.724 120.93 133.917Z"/>
	<path fill="#458BB5" transform="scale(2 2)" d="M245.498 95.629C245.646 97.1817 245.573 98.6945 245.498 100.249C252.473 100.235 259.474 100.092 266.445 100.249C268.754 101.354 275.031 101.434 277.811 101.796C302.308 104.992 343.333 120.834 361.589 138.789C363.884 141.763 370.918 147.047 374.277 150.448C438.481 214.324 438.807 321.966 374.694 386.222C370.832 390.093 366.716 393.78 362.973 397.753C354.748 403.955 346.438 409.46 337.681 414.853C335.318 416.368 332.573 417.596 330.04 418.81C276.924 444.28 223.532 441.14 172.982 413.518C168.733 410.35 152.067 398.206 148.41 396.295C144.912 392.341 140.823 388.787 137.085 385.048C81.5995 329.529 73.4746 238.165 117.967 173.556C123.689 165.248 130.122 157.914 136.858 150.448C140.732 146.35 145.36 142.023 149.986 138.789C153.263 136.219 156.178 133.348 159.62 130.89C190.847 108.586 210.84 106.268 245.498 100.249L245.498 95.629ZM252.942 122.76C226.073 122.635 197.935 132.213 175.661 147.256C95.3006 201.529 89.8083 319.356 165 380.505C191.08 401.714 225.64 414.022 259.352 413.1C385.907 411.135 449.307 253.738 356.044 163.897C329.475 138.304 290.462 119.979 252.942 122.76Z"/>
	<path fill="#26374F" transform="scale(2 2)" d="M256.088 374.757C262.923 375.058 266.221 393.24 257.101 396.295C248.001 396.175 249.928 379.843 251.556 377.136C252.474 375.609 254.49 375.192 256.088 374.757Z"/>
	<path fill="#26374F" transform="scale(2 2)" d="M371.475 262.274C374.936 262.83 380.25 262.225 382.997 264.657C388.761 269.76 382.279 274.488 375.187 274.131C370.865 274.187 358.275 274.206 363.889 265.558C365.515 263.054 368.805 262.855 371.475 262.274Z"/>
	<path fill="#26374F" transform="scale(2 2)" d="M133.178 262.274C137.704 262.109 146.528 260.45 149.102 265.568C150.915 269.173 148.873 272.471 145.546 274.131C139.101 275.629 130.148 275.702 128.155 268.145C128.94 264.789 129.756 263.532 133.178 262.274Z"/>
	<path fill="#26374F" transform="scale(2 2)" d="M256.088 138.789C263.847 139.456 262.776 150.689 261.852 156.401C261.342 159.55 258.997 160.477 256.088 160.896C247.236 159.98 249.918 142.592 251.302 140.822C252.438 139.367 254.387 139.055 256.088 138.789Z"/>
	<path fill="#26374F" transform="scale(2 2)" d="M250.794 248.03C250.442 239.359 250.787 230.514 250.79 221.825C250.792 215.124 248.993 178.56 252.57 175.311C256.305 171.92 260.81 175.219 261.219 179.461C261.575 183.16 261.244 187.233 261.242 190.965L261.239 237.601C261.242 241.028 261.581 244.631 261.243 248.03C257.378 247.184 254.655 247.264 250.794 248.03Z"/>
	<path fill="#26374F" transform="scale(2 2)" d="M274.4 279.651C276.578 280.888 280.687 285.856 282.671 287.832L330.606 335.497C332.927 337.806 339.519 342.896 340.37 346.039C341.218 349.172 339.751 352.459 336.4 353.128C332.547 353.897 329.908 349.688 327.559 347.317L276.058 295.706C272.919 292.547 269.842 289.308 266.445 286.421C269.87 284.693 271.932 282.501 274.4 279.651Z"/>
	<path fill="#FA6B44" transform="scale(2 2)" d="M250.794 248.03C254.655 247.264 257.378 247.184 261.243 248.03C276.034 250.186 281.507 267.064 274.4 279.651C271.932 282.501 269.87 284.693 266.445 286.421C243.468 300.809 219.866 260.672 250.794 248.03Z"/>
</svg>
