<?xml version="1.0" encoding="utf-8" ?>
<svg xmlns="http://www.w3.org/2000/svg" xmlns:xlink="http://www.w3.org/1999/xlink" width="1024" height="1024">
	<path fill="#5B915D" transform="scale(2 2)" d="M305.683 98.4357C307.766 93.6236 312.14 88.915 315.159 84.5919L322.915 73.4649C325.217 70.2035 327.409 66.19 331.37 64.7281C336.172 62.9561 341.626 66.5137 343.062 71.1783C345.213 78.1647 337.675 85.5302 334.031 90.7494C330.117 96.3557 326.325 102.314 322.006 107.611C319.828 107.197 308.763 100.395 305.683 98.4357Z"/>
	<path fill="#5B915D" transform="scale(2 2)" d="M190.451 107.611C184.648 98.1775 177.069 89.8127 170.893 80.6098C164.978 71.7961 171.824 62.1832 180.503 64.6767C185.743 66.1823 204.436 93.5133 207.156 98.4357C201.422 101.735 196.385 102.829 190.451 107.611Z"/>
	<path fill="#5B915D" transform="scale(2 2)" d="M279.75 376.01L312.332 375.997C317.304 375.994 322.973 375.581 327.848 376.01L327.848 409.871C327.848 415.731 328.538 424.191 327.25 429.738C321.908 452.748 286.651 453.641 280.58 429.675C278.999 423.435 279.753 414.038 279.761 407.416L279.75 376.01Z"/>
	<path fill="#5B915D" transform="scale(2 2)" d="M183.59 376.01C188.819 375.626 194.356 375.996 199.62 375.998L232.542 376.01L232.551 409.398C232.554 415.336 233.27 424.054 231.916 429.596C226.154 453.189 190.383 453.053 184.315 428.685C182.858 422.829 183.572 413.189 183.58 406.958L183.59 376.01Z"/>
	<path fill="#5B915D" transform="scale(2 2)" d="M110.712 225.284C135.411 224.789 135.137 244.848 135.135 261.993L135.151 312.796C135.174 328.221 133.439 342.445 113.467 344.462C102.145 344.822 90.3385 337.617 88.8531 325.6C88.2285 320.545 88.5429 315.186 88.5419 310.093L88.5386 258.889C88.5199 241.553 89.9587 227.746 110.712 225.284Z"/>
	<path fill="#5B915D" transform="scale(2 2)" d="M396.735 225.284C409.139 223.91 420.672 230.201 423.594 242.959C424.922 248.752 424.252 256.897 424.252 263.014L424.275 312.16C424.418 326.931 422.31 339.771 404.508 343.697C391.682 345.954 379.113 336.948 376.837 324.154C376.062 319.804 376.462 315.28 376.481 310.882L376.495 261.553C376.497 245.311 375.15 228.815 396.735 225.284Z"/>
	<path fill="#80B642" transform="scale(2 2)" d="M207.156 98.4357C210.757 96.0413 215.121 94.7111 219.224 93.4071C245.819 84.9541 280.231 85.6276 305.683 98.4357C308.763 100.395 319.828 107.197 322.006 107.611C355.588 130.833 374.871 166.749 374.869 207.977L137.496 207.977C136.838 177.579 147.348 147.145 168.545 125.028C173.67 119.681 183.66 110.184 190.451 107.611C196.385 102.829 201.422 101.735 207.156 98.4357Z"/>
	<path fill="#EFBF40" transform="scale(2 2)" d="M217.875 136.095C241.391 133.246 249.664 170.651 221.059 175.886C193.772 175.862 191.477 139.052 217.875 136.095Z"/>
	<path fill="#EFBF40" transform="scale(2 2)" d="M291.381 136.095C317.672 134.407 321.33 173.462 294.563 175.886C267.492 176.396 264.952 139.227 291.381 136.095Z"/>
	<path fill="#80B642" transform="scale(2 2)" d="M152.503 224.537C159.277 225.004 167.027 224.531 173.895 224.534L360.192 224.537L360.208 336.681C360.214 342.145 360.624 347.985 359.6 353.359C356.646 368.861 342.836 377.187 327.848 376.01C322.973 375.581 317.304 375.994 312.332 375.997L279.75 376.01C264.971 375.318 247.39 375.741 232.542 376.01L199.62 375.998C194.356 375.996 188.819 375.626 183.59 376.01C167.564 377.198 153.802 366.71 152.663 350.286C152.21 343.759 152.426 337.153 152.478 330.614L152.503 224.537Z"/>
</svg>
