<?xml version="1.0" encoding="utf-8" ?>
<svg xmlns="http://www.w3.org/2000/svg" xmlns:xlink="http://www.w3.org/1999/xlink" width="1024" height="1024">
	<path fill="#3AB8C6" transform="scale(2 2)" d="M110.59 379.092C110.941 371.938 110.592 364.613 110.591 357.435L110.588 134.914C110.564 118.081 108.756 104.393 119.577 90.0429C127.597 79.4073 136.925 74.8649 149.806 73.0533L149.806 97.7154C150.181 123.307 149.806 148.964 149.805 174.561L149.806 328.91C149.489 335.308 149.82 341.834 149.806 348.247C113.358 356.183 118.01 375.072 110.59 379.092Z"/>
	<path fill="#A8D6E5" transform="scale(2 2)" d="M201.752 359.297C209.18 359.294 222.912 360.2 229.743 359.297C229.456 369.836 229.746 380.45 229.743 390.999C226.403 388.256 223.134 387.171 218.973 386.211C213.893 390.18 209.738 395.279 204.813 399.393C194.869 389.661 194.41 382.081 181.8 390.999L181.8 359.297C184.106 359.505 186.241 359.532 188.544 359.297L201.752 359.297Z"/>
	<path fill="#229AAA" transform="scale(2 2)" d="M149.806 328.91C150.297 334.737 150.052 342.331 149.806 348.247L175.988 348.263C180.118 348.269 184.44 348.556 188.544 348.247C188.568 351.29 188.996 356.463 188.544 359.297C186.241 359.532 184.106 359.505 181.8 359.297C164.654 359.282 142.088 356.178 129.736 370.024C114.25 387.384 123.271 418.658 147.617 421.555C151.541 422.022 155.646 421.795 159.597 421.795L373.297 421.788C378.831 421.801 384.32 422.114 389.851 421.785L389.852 380.067C389.854 373.157 390.049 366.202 389.851 359.297C396.654 358.274 396.724 356.305 401.516 353.419L401.911 353.733L401.937 420.968C402.054 434.432 401.775 432.944 389.575 432.954L169.859 432.95C162.56 432.954 155.18 433.199 147.896 432.793C126.182 431.581 110.354 411.064 110.544 390.188C110.578 386.438 111.193 382.833 110.59 379.092C118.01 375.072 113.358 356.183 149.806 348.247C149.82 341.834 149.489 335.308 149.806 328.91Z"/>
	<path fill="#3181A6" transform="scale(2 2)" d="M149.806 73.0533C169.044 73.4057 188.359 73.0487 207.606 73.0496L384.237 73.0399C405.032 73.0465 401.934 78.6318 401.931 98.2503C401.929 108.144 402.439 118.173 401.911 128.05L401.911 353.733L401.516 353.419C396.724 356.305 396.654 358.274 389.851 359.297C372.016 359.55 354.139 359.297 336.3 359.296L229.743 359.297C222.912 360.2 209.18 359.294 201.752 359.297L188.544 359.297C188.996 356.463 188.568 351.29 188.544 348.247C184.44 348.556 180.118 348.269 175.988 348.263L149.806 348.247C150.052 342.331 150.297 334.737 149.806 328.91L149.805 174.561C149.806 148.964 150.181 123.307 149.806 97.7154L149.806 73.0533Z"/>
	<path fill="#E1E1E2" transform="scale(2 2)" d="M238.773 136.731C247.169 136.582 255.596 136.731 263.995 136.732L345.479 136.722C354.467 136.715 366.487 133.597 369.301 143.875C368.527 146.444 367.307 148.691 364.664 149.735C360.688 150.107 356.464 149.742 352.454 149.739L262.013 149.738C257.825 149.738 240.275 150.289 237.273 149.399C231.809 147.78 232.462 139.779 238.773 136.731Z"/>
	<path fill="#E1E1E2" transform="scale(2 2)" d="M245.565 179.218L347.763 179.207C352.294 179.209 363.062 177.957 366.736 181.022C369.656 183.458 369.374 187.936 366.772 190.492C364.384 192.837 360.389 192.271 357.313 192.237L254.198 192.246C246.559 192.256 235.663 194.884 233.123 186.393C234.631 178.727 238.597 179.082 245.565 179.218Z"/>
	<path fill="#3AB8C6" transform="scale(2 2)" d="M149.806 73.0533C169.044 73.4057 188.359 73.0487 207.606 73.0496L384.237 73.0399C405.032 73.0465 401.934 78.6318 401.931 98.2503C401.929 108.144 402.439 118.173 401.911 128.05C401.216 119.262 401.77 106.664 401.911 97.7154L201.752 97.7154L201.732 351.773C201.727 354.22 201.488 356.883 201.752 359.297L188.544 359.297C188.996 356.463 188.568 351.29 188.544 348.247L188.544 97.7154L149.806 97.7154L149.806 73.0533Z"/>
	<path fill="#3181A6" transform="scale(2 2)" d="M149.806 97.7154L188.544 97.7154L188.544 348.247C184.44 348.556 180.118 348.269 175.988 348.263L149.806 348.247C150.052 342.331 150.297 334.737 149.806 328.91L149.805 174.561C149.806 148.964 150.181 123.307 149.806 97.7154Z"/>
</svg>
