<?xml version="1.0" encoding="utf-8" ?>
<svg xmlns="http://www.w3.org/2000/svg" xmlns:xlink="http://www.w3.org/1999/xlink" width="1024" height="1024">
	<path fill="#D93B38" transform="scale(2 2)" d="M92.7376 391.525C93.1933 384.605 92.7417 376.508 92.739 369.434L92.7425 137.056C92.7392 120.381 91.1628 106.957 102.783 93.1276C111.621 82.6103 122.436 77.6324 135.979 76.5046C137.09 76.5609 138.153 76.5913 139.265 76.5046L139.235 342.759C139.226 345.084 138.95 347.71 139.265 350C117.885 350.078 99.7965 363.46 94.4794 384.115C93.8613 386.517 93.6041 389.22 92.7376 391.525Z"/>
	<path fill="#4CBBED" transform="scale(2 2)" d="M139.265 350L419.808 350L419.838 415.327C419.957 433.914 416.51 434.545 397.408 434.526L154.39 434.511C147.437 434.514 140.422 434.694 133.475 434.397C110.779 433.426 94.3306 413.237 92.7376 391.525C93.6041 389.22 93.8613 386.517 94.4794 384.115C99.7965 363.46 117.885 350.078 139.265 350Z"/>
	<path fill="#E6E6E5" transform="scale(2 2)" d="M115.336 389.997C118.514 371.625 134.321 370.579 149.603 370.573L396.251 370.58C393.571 377.078 390.73 383.558 387.909 389.997C387.899 394.576 394.464 408.559 396.251 414.085L145.904 414.107C142.371 414.117 138.761 414.273 135.244 413.948C123.241 412.839 114.099 402.03 115.336 389.997Z"/>
	<path fill="#EB4941" transform="scale(2 2)" d="M135.979 76.5046C142.583 76.3256 149.227 76.4968 155.836 76.5005L399.447 76.4923C413.371 76.4577 419.689 76.7923 419.817 93.1665L419.808 350L139.265 350C138.95 347.71 139.226 345.084 139.235 342.759L139.265 76.5046C138.153 76.5913 137.09 76.5609 135.979 76.5046Z"/>
	<path fill="#FBC243" transform="scale(2 2)" d="M193.72 134.103C197.343 133.963 201.026 134.099 204.655 134.099L339.692 134.117C351.73 134.118 372.609 129.64 373.794 146.478C374.32 153.966 373.924 161.625 373.942 169.132C373.971 180.917 377.483 199.977 360.567 201.171L211.172 201.182C180.051 201.198 180.103 200.543 180.079 172.594L180.062 157.435C180.052 146.313 179.715 135.004 193.72 134.103Z"/>
</svg>
