<?xml version="1.0" encoding="utf-8" ?>
<svg xmlns="http://www.w3.org/2000/svg" xmlns:xlink="http://www.w3.org/1999/xlink" width="1024" height="1024">
	<path fill="#539FD3" transform="scale(2 2)" d="M98.5236 328.983C94.7163 329.45 87.9861 328.995 83.864 328.981C71.8535 328.939 51.2979 333.049 49.3691 316.296C49.034 313.385 49.2095 310.361 49.2189 307.431L49.2344 273.475C49.2017 246.139 54.3088 235.47 73.453 214.602L116.608 167.859C142.998 139.623 150.739 136.793 191.709 136.786L272.048 136.781C285.34 136.782 302.594 135.694 315.239 139.103C338.143 145.277 346.325 160.971 359.274 178.82C366.74 189.113 375.667 200.146 382.006 211.091C390.246 211.6 424.623 219.503 432.591 222.827C467.501 237.394 463.672 267.418 463.765 297.579C463.852 325.982 464.42 328.999 436.992 328.999L413.236 328.983C412.009 384.568 325.716 390.111 319.288 328.983L233.797 328.983C219.524 328.983 205.224 328.792 190.954 328.983C187.148 390.528 99.5013 383.963 98.5236 328.983Z"/>
	<path fill="#FEFEFE" transform="scale(2 2)" d="M254.838 163.59L281.432 163.588C313.716 163.574 317.454 166.185 337.122 193.805C341.138 199.446 345.522 204.936 349.369 210.678L349.188 211.091L254.838 211.091C254.686 205.92 254.831 200.7 254.834 195.525L254.838 163.59Z"/>
	<path fill="#FEFEFE" transform="scale(2 2)" d="M178.39 163.59L224.216 163.59L224.216 211.091L161.086 211.091L114.399 211.091C123.657 200.263 133.179 189.43 142.851 178.964C152.77 168.232 164.018 164.15 178.39 163.59Z"/>
	<path fill="#5C6672" transform="scale(2 2)" d="M98.5236 328.983C96.9789 302.85 117.972 280.31 144.155 280.166C172.492 280.01 191.052 301.386 190.954 328.983C187.148 390.528 99.5013 383.963 98.5236 328.983Z"/>
	<path fill="#C0BEBE" transform="scale(2 2)" d="M142.704 306.092C166.777 302.571 176.807 341.553 147.506 347.226C119.691 349.161 115.014 310.071 142.704 306.092Z"/>
	<path fill="#5C6672" transform="scale(2 2)" d="M319.288 328.983C319.277 315.335 322.672 303.396 332.496 293.439C362.193 263.344 413.556 285.377 413.236 328.983C412.009 384.568 325.716 390.111 319.288 328.983Z"/>
	<path fill="#C0BEBE" transform="scale(2 2)" d="M364.417 305.332C388.952 301.757 397.751 341.612 368.326 347.226C338.522 345.855 338.191 309.307 364.417 305.332Z"/>
</svg>
