<?xml version="1.0" encoding="utf-8" ?>
<svg xmlns="http://www.w3.org/2000/svg" xmlns:xlink="http://www.w3.org/1999/xlink" width="1024" height="1024">
	<path fill="#3FCBD8" transform="scale(2 2)" d="M86.762 223.862C88.4376 219.176 90.6731 214.618 92.719 210.08L116.69 157.291C118.986 152.309 120.991 146.828 124.157 142.332C137.02 124.065 159.221 127.353 178.649 127.353L286.069 127.361C305.016 127.362 328.969 123.528 342.646 139.656C347.225 145.056 351.375 154.732 354.894 161.248C364.815 179.622 377.885 202.713 386.118 221.657C411.478 225.798 439.739 222.94 456.148 245.559C463.616 255.852 463.662 267.543 463.603 279.629L463.606 314.818C463.621 336.1 456.87 336.771 438.079 336.763L415.468 336.742C416.078 361.002 395.22 381.775 371.319 382.962C343.493 384.344 321.668 363.467 320.506 335.874L223.456 335.874C207.317 335.875 191.121 336.162 174.988 335.874L175.009 336.305C175.442 347.469 169.833 359.702 162.256 367.716C132.514 399.175 81.676 377.736 80.8846 335.874L69.9614 335.895C50.4784 335.951 48.1859 329.109 48.2287 311.279L48.2403 294.077C48.2423 275.349 47.9378 256.581 48.1565 237.86C48.3202 223.854 60.8012 223.826 71.1971 223.836L86.762 223.862Z"/>
	<path fill="#AEE7F4" transform="scale(2 2)" d="M255.225 159.162L320.506 159.162C322.627 164.906 326.01 170.207 328.807 175.648L346.759 210.515C348.919 214.728 351.827 219.123 353.417 223.567L353.185 223.862L255.225 223.862L255.225 159.162Z"/>
	<path fill="#AEE7F4" transform="scale(2 2)" d="M148.563 159.162L223.021 159.162L223.021 223.862L193.812 223.862L118.577 223.862C128.158 202.387 138.231 180.194 148.563 159.162Z"/>
	<path fill="#667D90" transform="scale(2 2)" d="M80.8846 335.874C82.6511 308.028 103.272 286.713 132.127 288.736C156.168 290.421 175.883 311.711 174.988 335.874L175.009 336.305C175.442 347.469 169.833 359.702 162.256 367.716C132.514 399.175 81.676 377.736 80.8846 335.874Z"/>
	<path fill="#FCE4D3" transform="scale(2 2)" d="M127.399 318.603C148.172 316.94 152.895 348.859 129.309 351.96C106.845 352.91 104.668 320.558 127.399 318.603Z"/>
	<path fill="#667D90" transform="scale(2 2)" d="M320.506 335.874C320.794 309.076 342.718 288.644 369.28 289.005C393.831 289.338 417.048 311.593 415.468 336.742C416.078 361.002 395.22 381.775 371.319 382.962C343.493 384.344 321.668 363.467 320.506 335.874Z"/>
	<path fill="#FCE4D3" transform="scale(2 2)" d="M365.393 320.063C387.721 317.966 392.008 348.458 370.626 352.945C347.171 354.863 344.566 323.736 365.393 320.063Z"/>
</svg>
