<?xml version="1.0" encoding="utf-8" ?>
<svg xmlns="http://www.w3.org/2000/svg" xmlns:xlink="http://www.w3.org/1999/xlink" width="1024" height="1024">
	<path fill="#44586F" transform="scale(2 2)" d="M321.23 313.038C320.854 289.4 340.342 270.097 363.752 269.673C387.851 269.236 407.597 288.768 407.794 312.78L407.795 313.038C407.647 325.352 403.154 336.792 394.023 345.27C366.424 370.897 319.354 350.582 321.23 313.038Z"/>
	<path fill="#F2F2F2" transform="scale(2 2)" d="M361.145 289.329C366.676 287.378 373.964 289.885 378.618 292.981C397.205 305.35 389.69 333.809 368.75 337.694C334.518 343.513 330.192 290.977 361.145 289.329Z"/>
	<path fill="#44BDC2" transform="scale(2 2)" d="M98.1829 315.847C98.1233 315.056 98.0375 314.278 97.9322 313.493C88.6723 309.388 62.9064 320.057 59.0024 304.95C54.9301 289.191 59.9676 259.045 68.5399 245.401L68.7474 245.075C73.7696 237.249 81.1832 229.967 89.1799 225.279C100.906 218.405 96.7206 221.356 105.107 209.487L126.089 179.349C142.967 155.122 148.191 154.218 178.943 154.222L289.291 154.214C316.107 154.159 318.54 159.073 334.82 180.548L353.447 204.949C357.378 210.093 361.205 215.46 365.474 220.325C390.034 227.089 422.526 228.061 440.3 248.454C448.413 256.596 451.838 266.383 453.987 277.411L454.002 292.75C454.023 302.042 454.657 313.479 442.296 313.251C430.792 313.039 419.306 313.024 407.795 313.038L407.794 312.78C407.597 288.768 387.851 269.236 363.752 269.673C340.342 270.097 320.854 289.4 321.23 313.038C317.832 313.518 313.233 313.061 309.683 313.054L184.453 313.038C184.654 351.165 138.595 371.51 110.742 343.95C103.388 336.673 98.4069 326.284 98.1829 315.847Z"/>
	<path fill="#E3AF2D" transform="scale(2 2)" d="M440.3 248.454C448.413 256.596 451.838 266.383 453.987 277.411L453.633 277.556C431.303 286.484 419.338 256.093 440.3 248.454Z"/>
	<path fill="#F2F2F2" transform="scale(2 2)" d="M239.259 172.696L283.338 172.699C309.673 172.72 302.571 170.423 319.282 191.917L331.112 207.042C334.22 210.957 337.63 214.806 340.155 219.13L239.259 219.13L239.259 172.696Z"/>
	<path fill="#F2F2F2" transform="scale(2 2)" d="M159.028 172.696C166.265 172.429 173.616 172.687 180.862 172.688L224.922 172.696L224.922 219.13L187.875 219.13L121.198 219.13C123.133 216.047 125.414 213.098 127.497 210.108L139.035 193.405C144.754 185.15 148.62 175.682 159.028 172.696Z"/>
	<path fill="#44586F" transform="scale(2 2)" d="M98.1829 315.847C98.0294 302.895 101.414 292.732 110.337 283.152C136.407 255.162 183.565 273.41 184.453 313.038C184.654 351.165 138.595 371.51 110.742 343.95C103.388 336.673 98.4069 326.284 98.1829 315.847Z"/>
	<path fill="#F2F2F2" transform="scale(2 2)" d="M138.645 289.329C167.682 286.308 177.738 330.245 143.807 337.694C110.408 338.025 107.699 294.144 138.645 289.329Z"/>
</svg>
