<?xml version="1.0" encoding="utf-8" ?>
<svg xmlns="http://www.w3.org/2000/svg" xmlns:xlink="http://www.w3.org/1999/xlink" width="1024" height="1024">
	<path fill="#398695" transform="scale(2 2)" d="M105.713 260.916C109.736 264.826 113.669 268.826 117.532 272.895C121.315 276.994 125.295 280.913 129.193 284.902L234.764 391.102C239.588 396.012 244.667 400.678 249.448 405.622C241.521 414.915 232.061 423.172 223.543 431.947C217.765 437.899 206.955 450.039 200.477 454.714C190.331 462.037 181.318 448.132 175.111 441.965L62.0369 329.386C46.7937 314.094 63.0939 303.52 73.739 292.838L105.713 260.916Z"/>
	<path fill="#FB7576" transform="scale(2 2)" d="M254.185 112.181C257.587 108.071 261.797 104.312 265.569 100.508L301.608 64.2486C320.089 45.731 324.303 53.2437 341.352 70.4208L443.504 172.435C452.047 180.948 463.681 189.779 452.377 202.805C437.299 220.18 415.357 240.517 398.697 256.659C393.543 250.83 387.943 245.531 382.455 240.027L254.185 112.181Z"/>
	<path fill="#FB7576" transform="scale(2 2)" d="M254.185 112.181L382.455 240.027C387.943 245.531 393.543 250.83 398.697 256.659C395.937 259.424 391.425 264.653 388.405 266.797C379.076 276.509 369.374 285.848 359.82 295.334L317.843 337.23C302.71 352.255 288.067 367.85 272.702 382.631C265.376 388.8 256.687 398.664 249.448 405.622C244.667 400.678 239.588 396.012 234.764 391.102L129.193 284.902C125.295 280.913 121.315 276.994 117.532 272.895C113.669 268.826 109.736 264.826 105.713 260.916L119.9 246.776C122.823 243.903 125.855 241.122 128.631 238.106C131.974 233.996 136.217 230.196 139.988 226.461L217.784 148.544C226.358 139.977 234.703 131.187 243.422 122.764C247.258 119.622 250.434 115.491 254.185 112.181Z"/>
	<path fill="#EB626A" transform="scale(2 2)" d="M243.422 122.764C247.493 126.312 251.232 130.22 255.021 134.064C245.52 144.342 235.309 154.076 225.453 164.021L167.29 222.639C163.875 226.09 141.784 247.987 140.981 250.084L140.981 250.084C136.649 246.314 132.89 241.943 128.631 238.106C131.974 233.996 136.217 230.196 139.988 226.461L217.784 148.544C226.358 139.977 234.703 131.187 243.422 122.764Z"/>
	<path fill="#398695" transform="scale(2 2)" d="M254.185 112.181L382.455 240.027C387.943 245.531 393.543 250.83 398.697 256.659C395.937 259.424 391.425 264.653 388.405 266.797C374.761 252.845 360.719 239.274 346.949 225.448L255.021 134.064C251.232 130.22 247.493 126.312 243.422 122.764C247.258 119.622 250.434 115.491 254.185 112.181Z"/>
	<path fill="#E4E7E8" transform="scale(2 2)" d="M105.713 260.916L119.9 246.776C122.823 243.903 125.855 241.122 128.631 238.106C132.89 241.943 136.649 246.314 140.981 250.084L140.981 250.084L233.678 343.334C246.626 356.425 260.364 368.967 272.702 382.631C265.376 388.8 256.687 398.664 249.448 405.622C244.667 400.678 239.588 396.012 234.764 391.102L129.193 284.902C125.295 280.913 121.315 276.994 117.532 272.895C113.669 268.826 109.736 264.826 105.713 260.916Z"/>
	<path fill="#B9D3DF" transform="scale(2 2)" d="M105.713 260.916L119.9 246.776C122.823 243.903 125.855 241.122 128.631 238.106C132.89 241.943 136.649 246.314 140.981 250.084C138.835 251.221 136.896 253.637 135.158 255.352L122.24 268.257C120.672 269.798 119.22 271.486 117.532 272.895C113.669 268.826 109.736 264.826 105.713 260.916Z"/>
</svg>
