<?xml version="1.0" encoding="utf-8" ?>
<svg xmlns="http://www.w3.org/2000/svg" xmlns:xlink="http://www.w3.org/1999/xlink" width="1024" height="1024">
	<path fill="#B1E4E3" transform="scale(2 2)" d="M193.024 162.089L249.756 105.289C258.351 96.5678 276.173 76.8396 285.877 70.3803C296.528 63.2904 311.332 63.3312 322.187 69.9492C327.511 73.1958 335.857 82.5066 340.684 87.3219L432.394 179.211C440.839 187.783 446.51 194.764 446.468 207.705C446.415 224.242 438.02 231.144 427.215 241.789L358.726 310.139C355.904 312.986 352.927 315.751 350.272 318.75C345.299 314.705 340.633 309.686 336.236 305.017L336.236 305.017C331.573 309.249 326.54 313.977 322.419 318.75L207.359 203.802C202.629 199.113 197.393 194.682 193.024 189.673C196.889 185.189 202.34 180.915 206.681 176.036C202.047 171.532 197.418 166.826 193.024 162.089Z"/>
	<path fill="#76B9DB" transform="scale(2 2)" d="M193.024 162.089L249.756 105.289C258.351 96.5678 276.173 76.8396 285.877 70.3803C296.528 63.2904 311.332 63.3312 322.187 69.9492C327.511 73.1958 335.857 82.5066 340.684 87.3219L432.394 179.211C440.839 187.783 446.51 194.764 446.468 207.705C446.415 224.242 438.02 231.144 427.215 241.789L358.726 310.139C355.904 312.986 352.927 315.751 350.272 318.75C345.299 314.705 340.633 309.686 336.236 305.017C338.061 303.445 339.624 301.583 341.329 299.886L414.971 225.433C432.531 207.792 433.911 209.412 414.263 189.908L335.49 110.361C330.95 105.803 326.319 101.4 321.858 96.7566C306.444 80.7117 303.695 79.6282 287.857 95.2981C260.733 122.136 234.153 149.558 206.681 176.036C214.569 184.076 222.642 191.928 230.619 199.88L306.187 275.335C315.57 284.871 327.791 295.177 336.236 305.017C331.573 309.249 326.54 313.977 322.419 318.75L207.359 203.802C202.629 199.113 197.393 194.682 193.024 189.673C196.889 185.189 202.34 180.915 206.681 176.036C202.047 171.532 197.418 166.826 193.024 162.089Z"/>
	<path fill="#3D8FE5" transform="scale(2 2)" d="M193.024 162.089C197.418 166.826 202.047 171.532 206.681 176.036C202.34 180.915 196.889 185.189 193.024 189.673C197.393 194.682 202.629 199.113 207.359 203.802L322.419 318.75C326.54 313.977 331.573 309.249 336.236 305.017L336.236 305.017C340.633 309.686 345.299 314.705 350.272 318.75C347.144 322.326 343.438 325.418 340.069 328.764L244.181 424.488C229.792 438.922 213.758 457.105 191.148 442.423C185.996 439.078 181.939 434.282 177.629 429.962L82.6936 334.963C78.2737 330.608 72.9874 325.931 69.6748 320.651C57.7387 301.627 68.0266 287.435 80.8025 274.476L193.024 162.089Z"/>
	<path fill="#76B9DB" transform="scale(2 2)" d="M128.761 253.473C132.071 256.119 135.004 259.868 138.074 262.84C150.298 274.67 162.014 287.026 173.986 299.108L224.274 349.677C235.475 360.879 246.903 371.886 257.688 383.496C253.529 386.743 250 391.036 246.299 394.798L226.193 414.952C222.029 419.12 218.099 423.778 212.842 426.58C199.944 431.341 186.276 411.633 178.001 403.343L102.743 328.157C97.6959 323.051 92.0267 318.07 87.509 312.504C78.2891 301.145 91.4274 291.434 98.6873 284.022C108.692 273.808 119.013 263.947 128.761 253.473Z"/>
	<path fill="#FEFEFE" transform="scale(2 2)" d="M193.024 189.673C197.393 194.682 202.629 199.113 207.359 203.802L322.419 318.75C319.341 321.699 316.494 324.879 313.472 327.885L271.523 370.12C251.755 350.954 232.498 331.275 213.103 311.736L171.596 270.338C161.991 260.927 151.809 249.12 141.875 240.579C147.142 234.942 152.754 229.601 158.257 224.196L177.476 205.288C182.724 200.185 187.609 194.575 193.024 189.673Z"/>
</svg>
