<?xml version="1.0" encoding="utf-8" ?>
<svg xmlns="http://www.w3.org/2000/svg" xmlns:xlink="http://www.w3.org/1999/xlink" width="1024" height="1024">
	<path fill="#75CBF2" transform="scale(2 2)" d="M144.004 362.766C144.119 367.519 144.136 372.113 144.004 376.849C136.625 380.712 131.072 384.742 128.477 393.087C124.608 405.527 130.798 419.77 143.713 423.626C149.489 425.351 160.237 424.623 166.63 424.616L385.758 424.607C389.838 424.58 395.406 423.685 398.288 427.314C400.776 430.449 400.166 435.583 396.349 437.356C392.665 439.067 353.427 437.9 346.412 437.9L177.102 437.911C142.437 437.908 118.259 442.1 112.522 400.525C118.451 381.6 121.733 369.541 144.004 362.766Z"/>
	<path fill="#3282C3" transform="scale(2 2)" d="M112.522 400.525C112.832 392.632 112.525 384.613 112.524 376.705L112.5 114.533C112.471 93.2275 120.264 75.7965 144.004 71.8573C144.322 75.2337 144.04 78.7298 144.014 82.1256L144.009 351.995C144.015 354.501 144.562 360.794 144.004 362.766C121.733 369.541 118.451 381.6 112.522 400.525Z"/>
	<path fill="#3E9CDA" transform="scale(2 2)" d="M144.004 71.8573L381.662 71.8384C399.566 71.8195 399.387 72.9454 399.371 88.894L399.355 346.178C399.356 353.741 400.158 361.735 399.169 369.239C397.972 378.328 378.289 375.345 371.889 375.343L172.796 375.336C164.77 375.336 151.309 374.47 144.004 376.849C144.136 372.113 144.119 367.519 144.004 362.766C144.562 360.794 144.015 354.501 144.009 351.995L144.014 82.1256C144.04 78.7298 144.322 75.2337 144.004 71.8573ZM176.214 127.138L290.674 127.126C295.027 127.121 299.658 126.778 303.978 127.138L344.416 127.138L367.813 127.138C366.863 110.942 365.169 113.723 350.396 113.725L194.045 113.719C181.734 113.723 176.068 111.429 176.214 127.138Z"/>
	<path fill="#616576" transform="scale(2 2)" d="M176.214 127.138L290.674 127.126C295.027 127.121 299.658 126.778 303.978 127.138L344.416 127.138L367.813 127.138C368.066 129.818 367.828 132.569 367.828 135.259L367.818 166.396C367.805 178.865 366.154 191.037 350.579 191.22C339.013 191.356 327.43 191.198 315.862 191.197L209.235 191.21C179.497 191.252 176.21 189.822 176.205 159.358L176.214 127.138Z"/>
	<path fill="#FEAE4B" transform="scale(2 2)" d="M303.978 127.138L344.416 127.138L344.416 179.594C337.364 176.42 330.672 172.716 323.993 168.838C317.4 172.58 310.53 175.803 303.978 179.594L303.978 127.138Z"/>
</svg>
