<?xml version="1.0" encoding="utf-8" ?>
<svg xmlns="http://www.w3.org/2000/svg" xmlns:xlink="http://www.w3.org/1999/xlink" width="1024" height="1024">
	<defs>
		<linearGradient id="gradient_0" gradientUnits="userSpaceOnUse" x1="256.28983" y1="452.46304" x2="255.52652" y2="58.49807">
			<stop offset="0" stop-color="#1EA5F8"/>
			<stop offset="1" stop-color="#58E9F9"/>
		</linearGradient>
	</defs>
	<path fill="url(#gradient_0)" transform="scale(2 2)" d="M126.202 58.2511C131.715 57.9454 137.414 58.2371 142.948 58.2429L369.392 58.2437C376.417 58.2405 383.381 58.186 390.357 59.1478C421.4 63.4281 447.756 88.5436 452.083 119.937C453.167 127.799 452.948 135.757 452.947 143.672L452.948 375.348C452.949 381.24 453.181 387.25 452.347 393.1C447.426 427.612 418.729 448.392 386.043 452.868C365.144 452.606 344.207 452.866 323.306 452.866L148.604 452.866C139.702 452.868 129.3 453.56 120.623 452.258C90.0393 447.666 63.7386 422.288 59.7615 391.305C58.9594 385.057 59.2198 378.67 59.221 372.382L59.2194 138.734C59.2216 117.973 60.4402 104.163 74.1348 86.5542C87.5623 69.289 104.801 60.9646 126.202 58.2511ZM227.321 209.755C213.464 211.009 201.79 217.619 192.898 228.314C166.254 260.362 190.307 316.395 218.277 339.251C236.516 354.154 247.334 334.686 270.221 340.487C280.287 343.038 292.479 349.483 301.213 339.516C313.542 332.534 325.139 311.467 328.958 298.708C318.539 286.145 306.045 276.634 307.925 257.378C309.069 245.663 319.79 237.767 328.057 230.704C318.118 214.916 292.823 203.663 275.037 212.582C269.372 215.422 265.347 219.047 258.641 218.972C249.039 218.864 244.135 209.801 227.321 209.755ZM282.445 168.347C263.534 170.654 254.408 193.078 254.592 209.755C257.311 209.702 259.688 209.524 262.321 208.863C289.873 200.67 300.428 167.782 282.445 168.347Z"/>
</svg>
