<?xml version="1.0" encoding="utf-8" ?>
<svg xmlns="http://www.w3.org/2000/svg" xmlns:xlink="http://www.w3.org/1999/xlink" width="1024" height="1024">
	<path fill="#384C65" transform="scale(2 2)" d="M166.935 65.85C169.246 65.631 171.72 65.8245 174.047 65.8297L328.437 65.8421C335.736 65.8225 344.523 64.8263 351.409 67.7194C369.715 75.4105 366.508 96.0667 366.496 112.066L366.498 399.337C366.511 421.133 368.612 431.47 345.444 440.774C341.574 440.951 337.612 440.786 333.734 440.783L192.65 440.768C174.663 440.771 150.046 443.512 146.439 418.246C145.627 412.558 145.929 406.527 145.927 400.79L145.924 110.219C145.912 92.5362 142.412 69.128 166.935 65.85Z"/>
	<path fill="#9D9C9D" transform="scale(2 2)" d="M228.392 84.4974L277.908 84.5138C295.817 84.5141 290.676 95.3884 284.019 96.4963L247.576 96.5053C241.438 96.5048 234.992 96.9093 228.89 96.4433C220.563 95.8074 220.522 85.6251 228.392 84.4974Z"/>
	<path fill="#546B82" transform="scale(2 2)" d="M253.891 391.814C277.403 389.705 280.815 423.269 258.375 426.68C235.117 428.849 230.597 395.765 253.891 391.814Z"/>
	<path fill="#C1D9EB" transform="scale(2 2)" d="M252.601 112.124C286.569 112.125 320.577 111.76 354.54 112.124L354.54 379.566L258.375 379.566L156.773 379.566L156.773 112.124L252.601 112.124Z"/>
</svg>
