<?xml version="1.0" encoding="utf-8" ?>
<svg xmlns="http://www.w3.org/2000/svg" xmlns:xlink="http://www.w3.org/1999/xlink" width="1024" height="1024">
	<path fill="#FED97C" transform="scale(2 2)" d="M358.844 72.8539L378.287 72.8453C400.311 72.7548 418.472 76.9972 418.762 103.509C419.019 126.983 418.77 150.489 418.77 173.966L418.79 398.277C418.918 419.624 412.494 434.291 388.691 434.49L129.5 434.502C105.607 434.493 93.1244 425.635 92.9679 400.503L92.9604 110.483C92.9705 94.4741 95.3154 76.7265 115.325 73.4552C123.101 72.1839 132.284 72.8502 140.216 72.8568L334.178 72.8539L358.844 72.8539Z"/>
	<path fill="#FFCB4C" transform="scale(2 2)" d="M375.872 367.485C389.738 367.199 403.661 367.487 417.534 367.485C404.651 382.556 386.738 397.756 372.675 412.388C365.833 419.398 358.843 426.412 351.695 433.108L351.686 405.523C351.665 387.393 351.286 369.813 375.872 367.485Z"/>
	<path fill="#D29E61" transform="scale(2 2)" d="M334.178 72.8539L358.844 72.8539L358.857 116.83C358.856 125.268 359.697 139.149 357.651 147.07C352.661 166.385 326.75 174.046 312.35 159.552C295.722 142.815 307.373 115.522 334.178 116.23L334.178 72.8539Z"/>
	<path fill="#93B7A5" transform="scale(2 2)" d="M240.131 335.214L332.821 335.216C338.55 335.199 344.985 333.98 349.696 338.085C357.056 344.498 354.801 357.044 344.623 359.006C341.436 359.62 338 359.395 334.765 359.394L272.926 359.383L179.573 359.392C175.703 359.404 171.575 359.704 167.736 359.228C155.132 357.665 154.99 337.772 167.664 335.555C170.688 335.026 173.873 335.21 176.933 335.208L240.131 335.214Z"/>
	<path fill="#93B7A5" transform="scale(2 2)" d="M335.825 211.213C361.844 210.32 356.875 234.175 343.224 235.745C337.544 236.398 331.365 235.924 325.639 235.921L176.125 235.91C148.971 236.683 156.287 212.901 167.938 211.441C173.652 210.726 179.848 211.203 185.63 211.205L335.825 211.213Z"/>
	<path fill="#93B7A5" transform="scale(2 2)" d="M168.441 273.317C170.865 273.119 173.43 273.284 175.869 273.291L305.143 273.317C313.231 273.317 341.172 271.694 347.349 275.042C358.461 281.065 354.954 295.665 343.392 298.24C340.048 298.429 336.629 298.253 333.276 298.244L180.159 298.242C174.797 298.257 167.847 299.312 163.122 296.208C153.169 289.67 157.405 275.197 168.441 273.317Z"/>
</svg>
