<?xml version="1.0" encoding="utf-8" ?>
<svg xmlns="http://www.w3.org/2000/svg" xmlns:xlink="http://www.w3.org/1999/xlink" width="1024" height="1024">
	<path fill="#F9728B" transform="scale(2 2)" d="M336.724 68.2142C341.658 67.4316 363.309 67.9436 368.793 68.4097C400.069 71.0683 429.115 94.3239 435.794 125.516C439.774 144.099 437.499 176.442 437.499 195.953L437.503 344.918C437.514 355.163 438.357 366.24 436.359 376.31C429.097 412.893 399.725 435.714 363.182 435.988L167.52 435.999C155.624 436 143.325 436.723 131.62 434.229C99.2372 427.331 74.4296 397.671 74.2585 364.376L74.2491 159.256C74.2269 125.148 75.3303 101.129 107.916 79.7062C123.673 69.3467 136.944 68.2158 155.102 68.2086L176.028 68.2142L201.749 68.2142L311.179 68.2142L327.968 68.1937C330.855 68.1903 333.851 68.0178 336.724 68.2142Z"/>
	<path fill="#6CCBFC" transform="scale(2 2)" d="M176.028 68.2142L201.749 68.2142L201.764 86.8728C201.772 93.6911 202.893 102.229 197.795 107.668C193.006 112.777 184.672 112.329 179.878 107.474C174.855 102.387 176.021 94.9658 176.019 88.4479L176.028 68.2142Z"/>
	<path fill="#6CCBFC" transform="scale(2 2)" d="M311.179 68.2142L327.968 68.1937C330.855 68.1903 333.851 68.0178 336.724 68.2142C336.529 71.0057 336.686 73.8141 336.705 76.6102L336.751 91.2075C336.757 94.7083 336.987 98.4429 336.156 101.868C333.884 111.245 321.729 114.467 314.956 107.801C309.836 102.762 311.175 94.7865 311.176 88.2949L311.179 68.2142Z"/>
	<path fill="#CEE1FB" transform="scale(2 2)" d="M167.644 342.08C170.244 341.893 172.964 342.052 175.575 342.057L306.25 342.08C313.451 342.08 341.175 340.633 346.475 343.239C354.161 347.019 351.412 356.84 344.31 359.213C334.23 359.613 323.976 359.218 313.878 359.218L178.614 359.199C174.131 359.213 167.772 360.26 163.824 357.642C157.063 353.158 160.312 343.428 167.644 342.08Z"/>
	<path fill="#CEE1FB" transform="scale(2 2)" d="M167.064 288.681C174.601 288.381 182.285 288.675 189.834 288.675L316.102 288.69C321.548 288.702 341.339 288.006 345.182 289.235C354.053 292.07 352.694 302.646 344.31 305.995C342.347 306.246 340.213 306.049 338.233 306.033L212.498 306.002C205.291 306.003 170.132 307.151 165.433 305.264C157.145 301.936 159.976 291.582 167.064 288.681Z"/>
	<path fill="#CEE1FB" transform="scale(2 2)" d="M167.644 182.242C177.205 181.821 186.973 182.239 196.556 182.24L332.826 182.255C337.177 182.259 343.523 181.211 347.315 183.83C354.012 188.455 350.826 198.707 343.228 199.898C340.487 200.061 337.703 199.917 334.955 199.907L203.191 199.894C192.144 199.894 180.993 200.23 169.957 199.913C158.029 199.57 156.687 185.609 167.644 182.242Z"/>
	<path fill="#CEE1FB" transform="scale(2 2)" d="M167.064 235.519C170.178 235.246 173.369 235.507 176.497 235.513L312.555 235.518C316.886 235.516 344.147 234.344 346.371 236.326C352.451 241.743 352.992 249.573 344.31 253.183C332.502 253.36 320.66 253.179 308.85 253.179L191.96 253.17C184.701 253.168 177.297 253.522 170.057 253.16C158.095 252.562 155.944 238.375 167.064 235.519Z"/>
</svg>
