<?xml version="1.0" encoding="utf-8" ?>
<svg xmlns="http://www.w3.org/2000/svg" xmlns:xlink="http://www.w3.org/1999/xlink" width="1024" height="1024">
	<path fill="#1F73C4" transform="scale(2 2)" d="M365.779 90.9463C373.67 82.7305 387.286 67.9469 397.313 64.325C422.076 55.3793 447.896 74.6175 448.278 100.281C448.54 117.922 438.138 127.216 426.782 138.376C424.125 140.459 421.703 143.085 419.631 145.749C405.982 130.38 390.619 116.441 376.424 101.57C373.068 98.0537 368.728 94.7194 365.779 90.9463Z"/>
	<path fill="#F3934B" transform="scale(2 2)" d="M166.476 405.917C160.478 409.298 154.086 412.075 147.847 414.985L94.0687 439.966C88.3235 442.66 82.526 445.58 76.6342 447.918C66.5069 451.938 60.8566 443.462 64.4992 434.118C67.5216 426.365 71.1466 418.875 74.6629 411.342L87.7091 383.238C89.9282 378.454 103.099 348.275 105.862 345.476C114.041 352.938 121.506 361.086 129.549 368.673C133.953 373.069 138.35 377.469 142.861 381.756C150.605 389.81 159.435 397.275 166.476 405.917Z"/>
	<path fill="#249BD0" transform="scale(2 2)" d="M419.631 145.749C421.703 143.085 424.125 140.459 426.782 138.376C438.661 151.359 438.238 173.966 428.593 188.086C425.835 192.123 422.127 195.305 418.671 198.72L362.426 254.354C358.589 258.145 341.599 277.001 337.327 277.721C326.877 279.481 320.91 269.105 329.161 259.697L320.567 251.244C324.532 247.374 328.906 243.29 331.907 238.625L331.907 238.625C333.831 235.638 336.576 233.148 339.029 230.598L405.642 162.205C408.103 159.722 410.83 157.246 412.933 154.454C412.53 152.67 419.233 148.221 419.631 145.749ZM412.933 154.454C410.83 157.246 408.103 159.722 405.642 162.205L339.029 230.598C336.576 233.148 333.831 235.638 331.907 238.625L331.907 238.625C334.991 242.202 338.777 245.351 342.249 248.553C347.798 242.155 354.284 236.279 360.282 230.29L396.753 193.792C407.19 183.18 424.698 171.033 412.933 154.454Z"/>
	<path fill="#55BCDC" transform="scale(2 2)" d="M308.521 215.383C315.233 221.685 325.292 233.57 331.907 238.625L331.907 238.625C328.906 243.29 324.532 247.374 320.567 251.244C304.969 267.439 288.805 283.14 272.851 298.987L175.942 396.327C173.236 399.078 169.562 403.874 166.476 405.917C159.435 397.275 150.605 389.81 142.861 381.756C147.165 377.891 151.004 373.207 155.088 369.077L294.365 229.739C299.088 224.94 303.61 220.002 308.521 215.383Z"/>
	<path fill="#A4D7E4" transform="scale(2 2)" d="M362.62 88.0119C363.637 89.0454 364.67 90.0116 365.779 90.9463C368.728 94.7194 373.068 98.0537 376.424 101.57C390.619 116.441 405.982 130.38 419.631 145.749C419.233 148.221 412.53 152.67 412.933 154.454C410.83 157.246 408.103 159.722 405.642 162.205L339.029 230.598C336.576 233.148 333.831 235.638 331.907 238.625C325.292 233.57 315.233 221.685 308.521 215.383C304.033 211.028 299.643 206.571 295.225 202.145C289.499 196.189 276.618 184.804 272.285 178.814L328.953 121.674C340.157 110.455 351.639 99.4405 362.62 88.0119Z"/>
	<path fill="#55BCDC" transform="scale(2 2)" d="M272.285 178.814C276.618 184.804 289.499 196.189 295.225 202.145C299.643 206.571 304.033 211.028 308.521 215.383C303.61 220.002 299.088 224.94 294.365 229.739L155.088 369.077C151.004 373.207 147.165 377.891 142.861 381.756C138.35 377.469 133.953 373.069 129.549 368.673C121.506 361.086 114.041 352.938 105.862 345.476C111.934 340.445 117.364 334.482 122.964 328.931L272.285 178.814Z"/>
	<path fill="#249BD0" transform="scale(2 2)" d="M295.225 202.145C299.643 206.571 304.033 211.028 308.521 215.383C303.61 220.002 299.088 224.94 294.365 229.739L155.088 369.077C151.004 373.207 147.165 377.891 142.861 381.756C138.35 377.469 133.953 373.069 129.549 368.673C134.028 365.241 139.815 358.809 144.015 354.602L275.609 222.278C282.193 215.569 288.908 209.129 295.225 202.145Z"/>
</svg>
