<?xml version="1.0" encoding="utf-8" ?>
<svg xmlns="http://www.w3.org/2000/svg" xmlns:xlink="http://www.w3.org/1999/xlink" width="1024" height="1024">
	<path fill="#346691" transform="scale(2 2)" d="M81.9966 398.257C91.7002 408.166 101.561 417.935 111.007 428.091C98.1507 433.595 78.8876 439.566 65.4551 443.67C69.8148 429.951 76.4525 411.295 81.9966 398.257Z"/>
	<path fill="#F5B891" transform="scale(2 2)" d="M102.314 343.897C109.952 351.829 118.02 359.317 125.784 367.122C132.528 374.032 139.504 380.704 146.317 387.543C153.449 394.565 160.569 401.575 167.466 408.829C165.419 409.333 163.397 410.402 161.468 411.261L126.164 423.032C121.168 424.68 116.124 426.896 111.007 428.091C101.561 417.935 91.7002 408.166 81.9966 398.257C88.6445 381.484 93.406 364.656 99.5036 347.964C100.236 346.309 100.917 345.077 102.314 343.897Z"/>
	<path fill="#E1E0E0" transform="scale(2 2)" d="M102.314 343.897C109.952 351.829 118.02 359.317 125.784 367.122C132.528 374.032 139.504 380.704 146.317 387.543C153.449 394.565 160.569 401.575 167.466 408.829C165.419 409.333 163.397 410.402 161.468 411.261C159.509 408.713 157.158 406.443 154.924 404.137C136.622 385.243 117.37 367.287 99.5036 347.964C100.236 346.309 100.917 345.077 102.314 343.897Z"/>
	<path fill="#E45459" transform="scale(2 2)" d="M350.842 96.6916C354.227 91.8602 359.291 87.7564 363.446 83.5404L374.679 72.3242C388.327 58.6664 390.972 62.0613 404.828 75.9496L437.383 108.51C440.099 111.225 443.277 113.905 445.613 116.943C453.699 127.465 437.539 138.802 431.165 145.191C426.183 150.185 419.947 157.176 414.705 161.518C407.387 167.96 399.603 176.234 392.616 183.236L370.677 161.518L350.842 141.531C343.496 133.686 335.111 126.735 328.05 118.597C335.172 111.155 342.715 103.003 350.842 96.6916Z"/>
	<path fill="#E1E0E0" transform="scale(2 2)" d="M328.05 118.597C335.172 111.155 342.715 103.003 350.842 96.6916C354.552 102.028 362.818 109.193 367.709 114.084L394.414 141.007C401.207 147.75 408.373 154.343 414.705 161.518C407.387 167.96 399.603 176.234 392.616 183.236L370.677 161.518L350.842 141.531C343.496 133.686 335.111 126.735 328.05 118.597Z"/>
	<path fill="#4992BD" transform="scale(2 2)" d="M370.677 161.518L392.616 183.236C387.246 189.337 381.073 194.925 375.37 200.736L174.302 402.606C172.63 404.275 169.831 408.263 167.466 408.829C160.569 401.575 153.449 394.565 146.317 387.543C149.662 385.257 154.874 379.21 157.937 376.145L354.501 178.66C358.068 175.081 368.594 165.083 370.677 161.518Z"/>
	<path fill="#4992BD" transform="scale(2 2)" d="M328.05 118.597C335.111 126.735 343.496 133.686 350.842 141.531L370.677 161.518C368.594 165.083 358.068 175.081 354.501 178.66L157.937 376.145C154.874 379.21 149.662 385.257 146.317 387.543C139.504 380.704 132.528 374.032 125.784 367.122C118.02 359.317 109.952 351.829 102.314 343.897C106.982 339.739 111.303 335.141 115.724 330.725L328.05 118.597Z"/>
	<path fill="#346691" transform="scale(2 2)" d="M125.784 367.122C144.383 347.706 163.559 328.83 182.528 309.779L321.196 171.025C331.021 161.136 341.096 151.5 350.842 141.531L370.677 161.518C368.594 165.083 358.068 175.081 354.501 178.66L157.937 376.145C154.874 379.21 149.662 385.257 146.317 387.543C139.504 380.704 132.528 374.032 125.784 367.122Z"/>
</svg>
