<?xml version="1.0" encoding="utf-8" ?>
<svg xmlns="http://www.w3.org/2000/svg" xmlns:xlink="http://www.w3.org/1999/xlink" width="1024" height="1024">
	<path fill="#575D6A" transform="scale(2 2)" d="M78.0341 402.511C86.5926 413.106 97.7562 425.078 107.055 435.238C102.406 438.261 91.7808 442.126 86.4537 444.423C78.9572 447.656 64.9612 457.579 58.9058 451.049C57.543 445.295 61.0913 440.703 63.3025 435.563C68.0386 424.554 72.728 413.26 78.0341 402.511Z"/>
	<path fill="#E7621E" transform="scale(2 2)" d="M365.875 84.3404C368.482 80.8268 385.965 63.3296 389.734 61.0363C402.817 53.0774 412.626 59.8388 421.515 68.6914L431.779 78.9247C442.847 89.9629 464.311 105.234 450.317 122.993C446.755 127.513 431.962 141.396 427.278 145.309C417.999 154.641 408.286 163.583 399.11 172.996C391.297 164.798 382.995 156.818 374.82 148.979L363.241 137.367L337.989 112.414C346.668 102.549 356.652 93.6959 365.875 84.3404Z"/>
	<path fill="#DBDAD8" transform="scale(2 2)" d="M337.989 112.414C346.668 102.549 356.652 93.6959 365.875 84.3404C385.872 103.548 406.745 127.576 427.278 145.309C417.999 154.641 408.286 163.583 399.11 172.996C391.297 164.798 382.995 156.818 374.82 148.979L363.241 137.367L337.989 112.414Z"/>
	<path fill="#F8A70B" transform="scale(2 2)" d="M337.989 112.414L363.241 137.367L374.82 148.979C382.995 156.818 391.297 164.798 399.11 172.996C388.387 186.114 370.746 201.285 358.496 213.644L171.649 400.216C168.309 403.553 165.009 407.343 161.267 410.2C157.709 412.78 150.997 415.175 146.747 417.144L107.055 435.238C97.7562 425.078 86.5926 413.106 78.0341 402.511C80.7383 397.065 83.0155 391.414 85.372 385.812L94.4684 364.178C96.0817 360.313 97.256 354.458 100.251 351.435C103.614 347.77 107.259 344.278 110.74 340.718L300.657 150.22C313.122 137.653 325.364 124.815 337.989 112.414Z"/>
	<defs>
		<linearGradient id="gradient_0" gradientUnits="userSpaceOnUse" x1="326.5463" y1="114.0146" x2="113.66093" y2="438.61844">
			<stop offset="0" stop-color="#FFC93F"/>
			<stop offset="1" stop-color="#F3BD6C"/>
		</linearGradient>
	</defs>
	<path fill="url(#gradient_0)" transform="scale(2 2)" d="M363.241 137.367L374.82 148.979C369.475 154.779 363.598 160.176 357.969 165.704L146.812 376.046C142.345 380.531 137.982 385.169 133.145 389.262C139.501 387.337 144.159 386.285 150.321 389.558C163.209 396.404 158.169 403.913 161.267 410.2C157.709 412.78 150.997 415.175 146.747 417.144L107.055 435.238C97.7562 425.078 86.5926 413.106 78.0341 402.511C80.7383 397.065 83.0155 391.414 85.372 385.812L94.4684 364.178C96.0817 360.313 97.256 354.458 100.251 351.435C101.687 353.159 108.321 352.385 110.892 353.145C121.539 356.29 125.529 366.619 122.564 376.708C125.329 374.641 127.657 371.83 130.08 369.382L363.241 137.367Z"/>
	<path fill="#F8A70B" transform="scale(2 2)" d="M337.989 112.414L363.241 137.367L130.08 369.382C127.657 371.83 125.329 374.641 122.564 376.708C125.529 366.619 121.539 356.29 110.892 353.145C108.321 352.385 101.687 353.159 100.251 351.435C103.614 347.77 107.259 344.278 110.74 340.718L300.657 150.22C313.122 137.653 325.364 124.815 337.989 112.414Z"/>
</svg>
