<?xml version="1.0" encoding="utf-8" ?>
<svg xmlns="http://www.w3.org/2000/svg" xmlns:xlink="http://www.w3.org/1999/xlink" width="1024" height="1024">
	<path fill="#E19E7F" transform="scale(2 2)" d="M70.3382 421.413C72.3707 422.877 73.3505 429.786 75.6362 432.553C80.1371 438.002 85.2976 437.666 87.8045 439.981C84.2121 441.587 64.5174 451.276 63.0101 447.194C62.4943 445.797 69.1673 424.618 70.3382 421.413Z"/>
	<path fill="#FBC03F" transform="scale(2 2)" d="M101.454 356.692C108.949 363.157 115.677 370.814 122.683 377.814C133.509 388.631 144.814 399.295 155.02 410.693C149.823 414.279 136.371 419.186 129.993 421.929L103.322 433.358C98.1769 435.574 93.0385 437.999 87.8045 439.981C85.2976 437.666 80.1371 438.002 75.6362 432.553C73.3505 429.786 72.3707 422.877 70.3382 421.413C78.1288 402.89 88.667 384.248 97.0323 365.679C98.3736 362.701 99.6346 359.413 101.454 356.692Z"/>
	<path fill="#FBC03F" transform="scale(2 2)" d="M427.695 137.795C431.518 140.996 449.771 158.413 451.742 162.484C450.021 164.698 447.868 166.659 445.904 168.658L354.361 260.655C349.951 265.033 334.765 283.016 329.082 283.763C322.79 284.59 318.361 279.924 317.764 273.895C317.151 267.706 326.857 260.698 330.795 256.748L352.539 234.806C376.393 210.605 400.222 186.311 424.448 162.484C420.453 159.317 417.432 155.252 413.635 151.91C418.091 147.036 422.871 142.305 427.695 137.795Z"/>
	<path fill="#8EDDE6" transform="scale(2 2)" d="M316.614 134.463C326.966 124.836 337.086 112.93 347.567 103.97C350.063 101.837 352.34 101.141 355.457 102.666C355.711 104.788 394.095 141.652 399.309 146.945C402.496 150.179 406.69 153.436 409.028 157.33C409.34 157.375 409.57 157.491 409.85 157.33L413.635 160.391C403.834 167.349 388.071 186.526 378.309 196.012C377.393 195.039 376.426 194.081 375.558 193.067L374.381 191.704C369.156 186.845 364.24 181.722 359.177 176.703L338.311 156.078C332.289 150.006 326.245 143.281 319.719 137.795C319.644 136.883 317.36 135.159 316.614 134.463Z"/>
	<path fill="#18BDC3" transform="scale(2 2)" d="M355.457 102.666C364.729 93.8334 383.73 71.6621 393.243 66.4823C423.311 50.1115 458.408 80.3012 447.255 112.397C443.36 123.604 434.799 129.075 427.695 137.795C422.871 142.305 418.091 147.036 413.635 151.91C411.861 153.553 410.466 155.398 409.028 157.33C406.69 153.436 402.496 150.179 399.309 146.945C394.095 141.652 355.711 104.788 355.457 102.666Z"/>
	<path fill="#18BDC3" transform="scale(2 2)" d="M319.719 137.795C326.245 143.281 332.289 150.006 338.311 156.078L359.177 176.703C364.24 181.722 369.156 186.845 374.381 191.704C371.056 194.255 368.259 197.44 365.365 200.457L175.544 390.126C168.821 396.861 162.112 404.407 155.02 410.693C144.814 399.295 133.509 388.631 122.683 377.814C115.677 370.814 108.949 363.157 101.454 356.692C104.268 352.488 112.318 345.778 116.157 341.915L270.67 187.006C287.027 170.638 302.981 153.766 319.719 137.795Z"/>
</svg>
