<?xml version="1.0" encoding="utf-8" ?>
<svg xmlns="http://www.w3.org/2000/svg" xmlns:xlink="http://www.w3.org/1999/xlink" width="1024" height="1024">
	<path fill="#6C7984" transform="scale(2 2)" d="M261.704 60.531L327.45 60.5194C333.36 60.5186 340.041 59.2453 342.314 66.2625C344.874 74.165 346.593 82.5026 348.727 90.5413L431.905 408.194C433.318 413.655 439.637 435.429 439.48 439.352C439.1 448.814 421.309 445.732 414.476 445.731L271.564 445.722L240.205 445.722L96.9052 445.717C91.2681 445.718 85.3843 446.095 79.7756 445.658C68.6855 444.795 74.2468 432.793 75.8251 426.434L153.652 128.208C155.833 119.82 168.635 65.8434 171.901 62.4025C174.604 59.5537 181.698 60.5137 185.233 60.5142L250.523 60.531L261.704 60.531Z"/>
	<path fill="#FCB51B" transform="scale(2 2)" d="M248.96 137.253L263.069 137.253C262.91 144.383 264.363 178.762 263.721 180.111L263.069 180.237L248.185 180.237C248.157 165.897 249.193 151.359 248.96 137.253Z"/>
	<path fill="#FCB51B" transform="scale(2 2)" d="M250.523 60.531L261.704 60.531C260.906 73.609 261.717 101.767 263.069 114.077L249.475 114.077C249.206 108.671 249.642 103.136 249.806 97.7223L250.365 74.2002C250.492 69.6626 250.816 65.065 250.523 60.531Z"/>
	<path fill="#FCB51B" transform="scale(2 2)" d="M247.059 216.056L265.172 216.056C264.787 222.615 266.891 270.537 266 271.814L265.172 271.875C258.806 271.774 252.424 271.871 246.057 271.875C244.932 254.249 247.218 234.113 247.059 216.056Z"/>
	<path fill="#FCB51B" transform="scale(2 2)" d="M244.755 303.818C252.324 303.816 259.899 303.718 267.467 303.818C266.951 311.016 267.635 318.479 267.871 325.704C268.236 336.837 269.348 351.926 268.915 362.716C268.269 363.1 267.616 362.952 266.875 362.944L243.229 362.944C243.121 343.212 244.761 323.525 244.755 303.818Z"/>
	<path fill="#FCB51B" transform="scale(2 2)" d="M241.789 396.837C251.317 396.829 260.915 396.568 270.435 396.837C270.196 401.534 270.488 406.19 270.694 410.883L271.427 430.449C271.601 435.521 271.878 440.654 271.564 445.722L240.205 445.722C239.819 429.453 242.047 413.151 241.789 396.837Z"/>
</svg>
