<?xml version="1.0" encoding="utf-8" ?>
<svg xmlns="http://www.w3.org/2000/svg" xmlns:xlink="http://www.w3.org/1999/xlink" width="1024" height="1024">
	<path fill="#376598" transform="scale(2 2)" d="M344.319 71.7621C358.034 71.1513 357.854 77.6483 360.567 89.0407L436.495 409.988C439.772 423.307 447.488 440.503 426.148 438.76C418.518 413.941 412.543 383.419 406.763 357.974L352.464 127.754C348.543 110.713 342.22 88.8785 340.068 71.7621C341.486 71.8081 342.901 71.7837 344.319 71.7621Z"/>
	<path fill="#376598" transform="scale(2 2)" d="M87.1084 438.76C66.8046 441.92 72.4792 425.652 75.0585 414.141L149.027 98.7598C154.476 75.7611 149.206 71.5982 173.071 71.7621C168.632 92.1521 163.403 112.395 158.664 132.72L95.2227 403.686C92.6232 415.381 90.1696 427.179 87.1084 438.76Z"/>
	<path fill="#3295DA" transform="scale(2 2)" d="M321.391 71.7621C328.937 71.7582 336.81 71.1854 344.319 71.7621C342.901 71.7837 341.486 71.8081 340.068 71.7621C342.22 88.8785 348.543 110.713 352.464 127.754L406.763 357.974C412.543 383.419 418.518 413.941 426.148 438.76L99.9128 438.764C95.6483 438.768 91.3697 438.91 87.1084 438.76C90.1696 427.179 92.6232 415.381 95.2227 403.686L158.664 132.72C163.403 112.395 168.632 92.1521 173.071 71.7621L191.049 71.7621C190.459 75.4183 189.561 79.0077 188.809 82.6317L131.598 371.76C130.842 375.418 129.707 379.237 129.384 382.95C128.674 391.128 138.047 395.544 144.46 390.511C148.772 387.127 150.412 370.503 151.524 365.095L205.948 92.248C207.38 85.4149 209.109 78.6252 210.389 71.7621L302.163 71.7621C302.841 77.8571 304.502 83.9708 305.7 89.9898L361.501 367.442C362.742 373.238 363.653 379.17 365.155 384.9C368.249 396.705 385.613 392.177 383.317 380.534L339.914 164.393C333.706 133.533 327.181 102.702 321.391 71.7621ZM255.239 359.304C243.496 362.238 247.658 376.316 247.656 386.413L247.647 401.019C247.634 408.647 246.541 417.672 257.525 417.265C268.113 414.338 264.627 399.645 264.63 390.561C264.634 381.026 269.368 358.881 255.239 359.304ZM255.239 271.559C246.035 273.023 247.659 282.142 247.654 289.157L247.652 304.986C247.649 314.744 243.775 328.3 258.198 327.75C261.91 326.71 264.235 324.132 264.52 320.328C265.323 309.637 265.183 291.642 264.631 280.846C264.365 275.649 261.247 270.775 255.239 271.559ZM255.239 90.7741C252.637 91.5881 250.056 92.5904 248.741 95.1857C247.099 98.4275 247.1 133.728 248.603 137.708C250.005 141.421 253.989 142.342 257.525 142.243C261.716 141.212 264.106 139.186 264.461 134.881C265.225 125.634 265.137 109.032 264.518 99.7285C264.144 94.1216 261.632 90.2448 255.239 90.7741ZM255.239 182.097C244.426 183.496 247.644 199.321 247.644 207.543C247.643 216.168 244.353 232.68 257.525 232.242C262.628 230.96 264.051 228.065 264.473 223.194C264.881 218.479 265.089 191.041 263.994 187.694C262.758 183.92 258.957 182.138 255.239 182.097Z"/>
</svg>
