<?xml version="1.0" encoding="utf-8" ?>
<svg xmlns="http://www.w3.org/2000/svg" xmlns:xlink="http://www.w3.org/1999/xlink" width="1024" height="1024">
	<path fill="#3D474A" transform="scale(2 2)" d="M239.767 374.615C243.693 374.087 248.756 374.61 252.834 374.611L265.496 374.597C267.525 374.592 269.657 374.439 271.675 374.615C271.676 381.714 271.446 451.521 271.675 451.938L271.675 455.894L239.767 455.894L239.767 374.615Z"/>
	<path fill="#405D6E" transform="scale(2 2)" d="M181.085 98.7446C181.092 86.8726 178.585 73.6603 187.485 64.7922C194.366 57.9359 203.195 59.025 212.12 59.0248L307.986 59.0216C334.193 59.2505 329.678 81.0403 330.35 98.7446L354.151 98.7237C357.742 98.7215 362.127 98.253 365.63 98.9675C371.504 100.166 375 107.811 371.531 112.858C368.708 116.966 364.21 120.528 360.648 124.001C351.234 133.182 338.528 144.45 330.35 154.067L330.35 187.253L354.548 187.234C358.066 187.232 362.296 186.802 365.749 187.408C371.682 188.45 374.489 196.787 371.092 201.504C368.367 205.289 363.902 209.001 360.532 212.336L339.208 233.389C336.266 236.318 333.137 239.1 330.35 242.175L330.35 272.523L354.02 272.504C357.645 272.501 361.899 272.084 365.46 272.663C371.139 273.587 374.899 281.133 371.341 285.941C368.98 289.132 365.118 292.32 362.293 295.227C351.852 305.975 340.41 316.279 330.35 327.305L330.36 345.995C330.374 359.114 329.881 374.753 311.162 374.687L284.012 374.605C279.993 374.599 275.659 374.241 271.675 374.615C272.068 400.36 271.674 426.185 271.675 451.938C271.446 451.521 271.676 381.714 271.675 374.615C269.657 374.439 267.525 374.592 265.496 374.597L252.834 374.611C248.756 374.61 243.693 374.087 239.767 374.615L212.898 374.615C200.828 374.631 185.936 376.536 181.842 360.912C179.777 353.033 181.594 335.128 181.085 326.014C169.669 314.333 157.95 302.985 146.408 291.434C143.002 288.025 138.633 285.17 138.735 279.865C138.947 268.926 150.912 270.733 158.274 270.736L181.085 270.75C181.095 261.277 181.505 251.629 181.085 242.175C178.391 239.293 175.368 236.721 172.571 233.934L151.045 212.352C147.615 208.922 142.829 204.894 140.116 201.017C136.747 196.203 139.76 188.545 145.61 187.518C149.5 186.835 153.866 187.239 157.823 187.239L181.085 187.253C181.191 176.214 181.254 165.104 181.085 154.067C178.914 150.564 175.386 147.984 172.484 145.12C166.743 139.455 141.999 115.639 139.95 111.791C136.846 105.962 141.007 99.6828 147.092 98.9742C151.22 98.4937 155.593 98.7382 159.747 98.7379L181.085 98.7446Z"/>
	<path fill="#EC524E" transform="scale(2 2)" d="M254.417 88.8566C297.204 84.8738 310.996 153.482 259.312 160.707C240.269 162.552 221.178 147.953 219.81 128.477C218.307 107.065 233.123 90.4073 254.417 88.8566Z"/>
	<path fill="#FED243" transform="scale(2 2)" d="M254.417 182.359C298.958 179.439 309.289 249.331 259.312 255.486C226.998 257.131 206.752 219.875 228.266 194.997C234.842 187.392 244.485 183.114 254.417 182.359Z"/>
	<path fill="#49BA73" transform="scale(2 2)" d="M251.14 274.511C295.603 269.949 312.658 335.143 261.49 347.463C211.928 353.795 204.294 280.123 251.14 274.511Z"/>
</svg>
