<?xml version="1.0" encoding="utf-8" ?>
<svg xmlns="http://www.w3.org/2000/svg" xmlns:xlink="http://www.w3.org/1999/xlink" width="1024" height="1024">
	<path fill="#5D7780" transform="scale(2 2)" d="M231.55 415.927C234.487 415.646 237.541 415.907 240.495 415.921L272.247 415.906C274.598 415.895 277.168 415.646 279.495 415.927C280.241 426.473 278.654 437.07 278.873 447.628C273.761 447.905 268.487 447.64 263.356 447.638L232.139 447.628C232.645 437.074 230.739 426.495 231.55 415.927Z"/>
	<path fill="#335B76" transform="scale(2 2)" d="M349.19 103.818L370.498 103.806C378.484 103.8 392.303 101.957 392.324 113.925C392.334 119.934 386.887 123.248 383.062 127.156C379.589 130.704 361.382 150.462 357.659 151.45C353.118 152.657 348.393 152.038 343.76 152.007C343.485 146.749 343.746 141.33 343.748 136.057L343.76 103.818C345.544 104.058 347.415 104.16 349.19 103.818Z"/>
	<path fill="#335B76" transform="scale(2 2)" d="M168 256.144C148.045 256.241 151.809 254.299 138.266 241.091L127.578 230.495C125.245 228.15 122.473 225.751 120.686 222.963C117.294 217.671 120.436 209.596 126.7 208.485C131.237 207.68 136.472 208.153 141.09 208.153L168 208.161L168 256.144Z"/>
	<path fill="#335B76" transform="scale(2 2)" d="M165.812 357.988C160.38 358.095 158.335 358.55 154.175 354.57C146.419 347.151 125.877 327.467 120.897 320.085C117.173 314.565 119.27 305.58 126.539 304.401C134.383 303.129 157.364 303.982 165.812 304.237C166.546 304.477 167.25 304.327 168 304.237L168 357.988C167.269 357.875 166.544 357.87 165.812 357.988Z"/>
	<path fill="#335B76" transform="scale(2 2)" d="M343.76 304.237L371.12 304.219C375.813 304.219 381.339 303.654 385.904 304.613C392.157 305.926 396.478 314.177 392.621 319.689C389.624 323.973 383.498 329.319 379.65 333.278L366.785 346.542C355.104 358.577 359.739 355.793 343.76 357.988L343.76 304.237Z"/>
	<path fill="#3B898A" transform="scale(2 2)" d="M168 103.818L167.978 91.1252C167.925 66.013 177.657 64.1054 200.373 64.1116L318.198 64.1172C336.87 64.1637 343.787 74.1889 343.781 91.9009L343.76 103.818C345.572 103.843 347.379 103.847 349.19 103.818C347.415 104.16 345.544 104.058 343.76 103.818L343.748 136.057C343.746 141.33 343.485 146.749 343.76 152.007L343.76 208.161C354.384 208.152 365.019 208.045 375.641 208.161C380.427 207.964 386.024 207.33 389.858 210.82C398.8 218.956 385.311 228.798 380.033 234.184C369.589 244.843 363.913 255.743 349.19 256.144C347.367 256.056 345.58 255.954 343.76 256.144L343.766 288.672C343.769 293.803 344.105 299.143 343.76 304.237L343.76 357.988L343.778 383.724C343.792 400.676 342.046 415.96 320.753 415.964L279.495 415.927C277.168 415.646 274.598 415.895 272.247 415.906L240.495 415.921C237.541 415.907 234.487 415.646 231.55 415.927C221.443 415.813 211.319 415.941 201.211 415.94C174.118 415.938 167.982 413.439 167.982 384.175L168.02 365.993C168.068 361.578 169.939 358.04 165.812 357.988C166.544 357.87 167.269 357.875 168 357.988L168 304.237C167.25 304.327 166.546 304.477 165.812 304.237C166.546 304.226 167.135 304.185 167.847 303.962C168.324 302.293 168.18 260.321 168 256.144L168 208.161C168.03 189.465 168.334 170.695 168 152.007C160.795 151.912 155.763 153.583 149.928 147.965C144.037 142.294 125.56 125.313 121.351 119.163C116.279 111.753 122.123 103.541 130.451 103.818C134.39 103.424 138.637 103.806 142.617 103.811L168 103.818Z"/>
	<path fill="#335B76" transform="scale(2 2)" d="M168 152.007C160.795 151.912 155.763 153.583 149.928 147.965C144.037 142.294 125.56 125.313 121.351 119.163C116.279 111.753 122.123 103.541 130.451 103.818C134.694 104.023 139.007 103.83 143.258 103.825L168 103.818L168 152.007Z"/>
	<path fill="#335B76" transform="scale(2 2)" d="M375.641 208.161C380.427 207.964 386.024 207.33 389.858 210.82C398.8 218.956 385.311 228.798 380.033 234.184C369.589 244.843 363.913 255.743 349.19 256.144C348.112 255.222 345.073 255.969 343.76 256.144C343.763 240.158 343.549 224.143 343.76 208.161C345.918 208.34 348.195 208.18 350.364 208.175L363.771 208.167C367.161 208.169 372.584 208.707 375.641 208.161Z"/>
	<path fill="#F25643" transform="scale(2 2)" d="M253.234 88.0988C273.539 86.2745 293.632 102.169 295.808 122.627C298.311 146.166 282.634 165.629 259.006 167.946C204.486 169.284 201.632 93.1237 253.234 88.0988Z"/>
	<path fill="#FEBF44" transform="scale(2 2)" d="M252.166 200.598C285.264 196.393 308.438 234.754 289.57 263.398C282.367 274.334 273.188 278.151 260.813 280.678C206.104 283.681 199.565 206.57 252.166 200.598Z"/>
	<path fill="#05E68A" transform="scale(2 2)" d="M254.348 311.355C263.651 310.17 275.02 315.038 282.119 320.814C310.008 343.505 295.793 388.21 258.049 391.738C221.566 392.809 201.711 352.728 224.761 325.752C232.093 317.171 243.21 312.237 254.348 311.355Z"/>
</svg>
