<?xml version="1.0" encoding="utf-8" ?>
<svg xmlns="http://www.w3.org/2000/svg" xmlns:xlink="http://www.w3.org/1999/xlink" width="1024" height="1024">
	<path fill="#637F8D" transform="scale(2 2)" d="M232.264 392.21C241.681 392.776 278.209 391.073 279.06 392.688C278.72 397.97 279.042 403.497 279.044 408.804L279.062 441.512C279.069 446.27 279.436 451.143 279.06 455.878L232.264 455.878L232.264 392.21Z"/>
	<path fill="#637F8D" transform="scale(2 2)" d="M169.03 352.226C165.838 347.516 160.134 342.05 156.238 337.709L121.576 299.213C117.619 294.804 111.39 288.971 108.122 284.443C104.243 279.068 108.687 271.061 114.625 269.497C119.518 268.209 126.09 268.612 131.142 268.61L156.143 268.633C160.3 268.643 164.611 268.932 168.752 268.648L169.03 268.626C169.487 269.824 169.028 280.018 169.029 282.343L169.03 337.431C169.032 339.688 169.469 350.923 169.03 352.226Z"/>
	<path fill="#637F8D" transform="scale(2 2)" d="M169.03 184.25C170.036 185.875 169.038 189.803 169.029 191.733L169.013 256.229C169.026 259.844 170.179 265.259 169.03 268.626C167.33 265.803 161.054 259.51 158.431 256.527C145.324 241.628 131.638 227.258 118.55 212.345C115.501 208.87 111.475 205.776 108.912 201.944C104.316 195.071 109.672 186.779 117.118 184.921C122.074 183.685 128.239 184.24 133.335 184.24L156.626 184.257C160.745 184.267 164.917 184.436 169.03 184.25Z"/>
	<path fill="#637F8D" transform="scale(2 2)" d="M344.854 184.25L377.286 184.242C386.104 184.24 405.11 181.659 404.757 195.8C404.599 202.085 397.109 207.876 393.175 212.11L352.525 256.784C349.103 260.536 345.796 264.581 342.215 268.16C341.917 266.196 342.171 263.853 342.18 261.854L342.263 190.196C342.259 187.017 340.7 184.29 344.854 184.25Z"/>
	<path fill="#637F8D" transform="scale(2 2)" d="M342.911 268.626L378.121 268.631C382.859 268.63 391.386 268.071 395.72 268.931C403.319 270.439 407.104 278.55 402.642 284.881C400.099 288.49 396.893 291.79 393.987 295.114L355.915 337.996C351.504 342.894 347.357 348.058 342.215 352.226L342.216 281.187C342.216 278.689 341.405 270.535 342.911 268.626Z"/>
	<path fill="#637F8D" transform="scale(2 2)" d="M342.911 99.2585C347.183 99.4198 351.491 99.2682 355.767 99.2606L380.087 99.2461C388.689 99.2487 405.213 97.2763 404.744 111.054C404.547 116.851 398.764 121.647 395.164 125.636L342.215 183.554C342.053 176.248 342.211 168.902 342.212 161.593L342.222 118.545C342.226 115.4 341.784 101.175 342.27 99.5001L342.911 99.2585Z"/>
	<path fill="#637F8D" transform="scale(2 2)" d="M169.03 183.554C161.671 176.077 154.657 168.286 147.557 160.563L114.121 123.766C112.05 121.445 109.687 119.104 108.003 116.483C103.807 109.954 107.973 101.062 115.555 99.5977C120.178 98.705 128.161 99.2474 133.068 99.247L169.03 99.2585L169.024 165.399C169.02 168.302 169.522 181.687 169.03 183.554Z"/>
	<path fill="#D9DEDE" transform="scale(2 2)" d="M169.03 99.2585C169.612 96.0899 169.065 92.8557 169.272 89.663C170.319 73.5691 181.949 59.7798 198.101 57.5485C205.033 56.591 213.54 57.1516 220.647 57.152L297.559 57.1562C313.75 57.1559 325.874 55.4906 336.479 70.8008C341.74 78.3951 342.65 87.2635 342.076 96.2936C341.995 97.5632 341.483 98.785 342.911 99.2585L342.27 99.5001C341.784 101.175 342.226 115.4 342.222 118.545L342.212 161.593C342.211 168.902 342.053 176.248 342.215 183.554C342.947 184.124 343.983 184.019 344.854 184.25C340.7 184.29 342.259 187.017 342.263 190.196L342.18 261.854C342.171 263.853 341.917 266.196 342.215 268.16L342.911 268.626C341.405 270.535 342.216 278.689 342.216 281.187L342.215 352.226C341.589 390.62 316.469 392.896 284.538 392.203C283.348 392.177 279.608 391.413 279.06 392.688C278.209 391.073 241.681 392.776 232.264 392.21C214.679 391.319 195.529 394.181 181.308 381.393C172.064 373.08 169.663 364.267 169.03 352.226C169.469 350.923 169.032 339.688 169.03 337.431L169.029 282.343C169.028 280.018 169.487 269.824 169.03 268.626L169.03 268.626C170.179 265.259 169.026 259.844 169.013 256.229L169.029 191.733C169.038 189.803 170.036 185.875 169.03 184.25L169.03 183.554C169.522 181.687 169.02 168.302 169.024 165.399L169.03 99.2585Z"/>
	<path fill="#E7754F" transform="scale(2 2)" d="M254.387 88.3553C275.336 86.5774 294.675 104.125 296.174 124.792C297.796 147.172 280.634 166.737 258.277 168.241C248.049 168.339 237.904 165.207 230.005 158.545C202.953 135.729 217.034 91.1749 254.387 88.3553Z"/>
	<path fill="#FAB142" transform="scale(2 2)" d="M254.387 183.554C262.924 180.965 277.695 188.172 283.865 193.953C309.371 217.851 292.617 261.96 258.277 262.74C247.725 263.859 236.096 259.433 228.491 252.16C202.952 227.734 218.976 184.243 254.387 183.554Z"/>
	<path fill="#49A370" transform="scale(2 2)" d="M254.387 278.855L254.667 278.83C264.707 278.023 275.407 282.455 282.945 288.911C310.377 312.407 294.823 357.188 258.277 359.895C224.24 362.182 202.196 320.806 224.732 293.999C232.568 284.679 242.317 279.887 254.387 278.855Z"/>
</svg>
