<?xml version="1.0" encoding="utf-8" ?>
<svg xmlns="http://www.w3.org/2000/svg" xmlns:xlink="http://www.w3.org/1999/xlink" width="1024" height="1024">
	<path fill="#737879" transform="scale(2 2)" d="M329.76 324.43C329.74 314.465 334.05 305.433 340.915 298.322C364.502 273.889 406.88 291.108 407.248 324.43C409.257 358.624 367.131 376.979 341.926 353.902C333.636 346.313 329.546 335.533 329.76 324.43Z"/>
	<path fill="#C7C6C6" transform="scale(2 2)" d="M365.824 309.81C386.19 307.4 392.533 335.806 371.068 342.09C349.553 344.442 344.221 313.901 365.824 309.81Z"/>
	<path fill="#737879" transform="scale(2 2)" d="M117.244 324.43C118.438 276.855 190.889 272.177 194.695 324.43C195.026 334.945 191.009 345.649 183.488 353.051C157.887 378.248 116.579 359.252 117.244 324.43Z"/>
	<path fill="#C7C6C6" transform="scale(2 2)" d="M152.98 310.814C173.039 309.249 178.448 334.63 158.788 340.543C139.731 344.087 132.711 316.38 152.98 310.814Z"/>
	<path fill="#61B6D4" transform="scale(2 2)" d="M325.599 186.25L389.842 186.238C406.836 186.241 403.04 186.801 412.24 199.846C419.775 210.53 427.076 221.326 434.439 232.127C439.964 240.232 447.359 247.521 447.389 257.266L447.366 310.494C447.347 326.421 443.54 324.443 429.307 324.444L407.248 324.43C406.88 291.108 364.502 273.889 340.915 298.322C334.05 305.433 329.74 314.465 329.76 324.43C328.377 324.536 326.985 324.462 325.599 324.43C325.332 319.356 325.587 314.136 325.594 309.05L325.599 186.25Z"/>
	<path fill="#DBAF47" transform="scale(2 2)" d="M360.549 207.113L378.353 207.09C384.585 207.094 390.136 205.749 394.158 211.459C400.616 220.628 410.875 235.95 416.174 245.638C419.468 251.66 417.377 257.599 410.062 257.488L374.58 257.488C368.559 257.498 352.27 260.327 351.518 251.664C350.856 244.045 350.841 221.605 351.728 214.422C352.43 208.74 355.003 207.375 360.549 207.113Z"/>
	<path fill="#61B6D4" transform="scale(2 2)" d="M117.244 324.43C107.104 324.292 96.9461 324.442 86.8039 324.443C62.8385 324.445 64.2235 326.011 64.2365 302.723L64.2359 167.306C64.2291 157.968 60.5907 145.774 72.8287 145.634C91.213 145.424 109.645 145.715 128.037 145.715L295.384 145.705C299.832 145.703 311.185 145.145 314.729 146.047C323.038 148.164 320.329 169.986 320.329 177.123L320.325 324.43L208.688 324.442C204.064 324.449 199.305 324.699 194.695 324.43C190.889 272.177 118.438 276.855 117.244 324.43Z"/>
</svg>
