<?xml version="1.0" encoding="utf-8" ?>
<svg xmlns="http://www.w3.org/2000/svg" xmlns:xlink="http://www.w3.org/1999/xlink" width="1024" height="1024">
	<path fill="#6487A8" transform="scale(2 2)" d="M152.03 304.101C172.97 301.217 190.918 319.511 192.433 339.517C193.961 359.699 178.824 378.077 158.456 379.492C125.587 382.909 104.845 343.264 126.242 317.421C132.812 309.485 141.804 305.027 152.03 304.101Z"/>
	<path fill="#ACD4F5" transform="scale(2 2)" d="M153.111 327.319C172.83 326.098 176.557 351.317 157.54 356.344C138.088 359.464 133.877 330.473 153.111 327.319Z"/>
	<path fill="#6487A8" transform="scale(2 2)" d="M353.652 303.252C397.876 299.612 410.18 363.202 368.317 377.083C365.374 378.059 362.296 378.643 359.311 379.492C302.514 378.072 310.1 304.74 353.652 303.252Z"/>
	<path fill="#ACD4F5" transform="scale(2 2)" d="M354.443 327.319C367.921 321.776 382.031 347.699 358.344 356.344C332.613 353.239 340.485 327.16 354.443 327.319Z"/>
	<path fill="#E0DDDB" transform="scale(2 2)" d="M84.2519 281.258C92.0362 281.393 99.8483 281.262 107.635 281.262L293.3 281.258L293.3 337.711L249.125 337.711L203.561 337.711C198.607 278.61 111.161 278.323 105.915 337.711C83.3267 337.88 84.2379 336.134 84.2418 313.196L84.2519 281.258Z"/>
	<path fill="#FC816A" transform="scale(2 2)" d="M304.499 170.751L378.712 170.744C399.564 170.73 400.659 174.028 410.409 190.163L435.725 232.225C441.89 242.237 445.7 247.91 445.739 260.11L445.751 320.164C445.746 337.338 439.631 337.761 424.418 337.73L405.501 337.711C405.235 336.336 405.434 334.835 405.501 333.441C403.368 326.695 401.65 320.172 397.555 314.259C381.852 291.586 352.121 284.642 329.049 300.844C315.322 310.485 310.697 321.637 307.862 337.711C306.744 337.801 305.619 337.739 304.499 337.711C304.273 331.567 304.495 325.352 304.496 319.199L304.499 170.751ZM326.908 188.454C323.89 189.34 322.932 191.648 322.682 194.607C322.168 200.677 322.245 238.166 322.999 240.728C324.74 246.639 355.461 244.1 361.649 244.096L416.918 244.098C418.237 244.125 419.552 244.166 420.871 244.098C413.87 232.268 406.336 220.728 399.123 209.024L390.881 195.527C389.486 193.2 388.204 190.681 386.664 188.454C366.767 188.45 346.796 188.064 326.908 188.454Z"/>
	<path fill="#FC9739" transform="scale(2 2)" d="M85.1788 127.922C92.8523 127.713 100.589 127.919 108.27 127.919L293.3 127.922L293.3 268.832C287.15 269.192 280.793 268.845 274.625 268.832L102.774 268.833C92.3646 268.843 80.0257 271.166 71.7571 263.295C63.3069 255.251 65.9801 233.872 65.9866 222.697L65.9811 155.218C65.9495 140.029 66.7506 128.334 85.1788 127.922Z"/>
</svg>
