<?xml version="1.0" encoding="utf-8" ?>
<svg xmlns="http://www.w3.org/2000/svg" xmlns:xlink="http://www.w3.org/1999/xlink" width="1024" height="1024">
	<path fill="#5EC0DF" transform="scale(2 2)" d="M450.527 295.797C450.596 329.529 448.217 336.464 413.446 336.353C413.999 316.735 404.428 308.426 393.234 295.797L450.527 295.797Z"/>
	<path fill="#5EC0DF" transform="scale(2 2)" d="M61.7512 295.797L103.393 295.806C106.841 295.804 115.825 295.286 118.702 295.797C105.923 307.483 99.3853 318.238 98.5214 336.353L83.8101 336.371C75.2111 336.411 65.8294 337.173 62.7412 326.837C60.5021 319.343 62.2832 304.249 61.7512 295.797Z"/>
	<path fill="#6A7C81" transform="scale(2 2)" d="M147.883 297.376C196.967 295.055 206.334 369.988 152.545 375.734C142.236 375.908 133.015 373.231 124.935 366.623C97.4923 344.177 111.691 300.339 147.883 297.376Z"/>
	<path fill="#CCD7D7" transform="scale(2 2)" d="M148.778 321.859C165.446 318.151 175.105 348.409 152.545 352.796C130.854 354.691 128.117 323.396 148.778 321.859Z"/>
	<path fill="#5EC0DF" transform="scale(2 2)" d="M180.696 295.797C183.409 295.296 188.239 295.781 191.215 295.786L323.466 295.797C323.088 303.717 323.107 301.987 318.59 308.705C313.222 316.687 311.179 326.943 310.451 336.353L200.494 336.353C199.912 318.539 193.096 307.932 180.696 295.797Z"/>
	<path fill="#6A7C81" transform="scale(2 2)" d="M358.532 297.376C397.124 294.895 416.355 342.488 387.926 366.444C381.342 371.993 372.849 376.452 364.062 375.734C356.938 379.463 342.254 372.435 336.589 367.902C308.956 345.788 322.519 301.053 358.532 297.376Z"/>
	<path fill="#CCD7D7" transform="scale(2 2)" d="M361.312 321.859C380.33 322.858 382.657 349.952 361.312 352.796C341.775 352.606 340.326 323.621 361.312 321.859Z"/>
	<path fill="#FAC854" transform="scale(2 2)" d="M326.649 172.229L384.847 172.215C396.033 172.212 397.357 172.338 403.889 182.347L429.722 222.035C435.291 230.574 441.083 239.147 446.255 247.928C451.576 256.963 450.543 264.908 450.536 275.093L450.527 295.797L393.234 295.797C390.73 294.772 388.504 293.065 386.154 291.728C365.131 279.764 344.359 285.544 326.649 299.282L326.649 172.229Z"/>
	<path fill="#CCD7D7" transform="scale(2 2)" d="M353.537 190.966C358.453 190.96 382.988 190.143 385.807 192.029C389.772 194.682 417.528 234.845 418.406 239.509C419.083 243.105 415.997 246.389 412.563 246.791C409.293 247.035 405.94 246.816 402.659 246.807L365.416 246.808C359.664 246.815 349.436 248.533 347.885 240.904C346.831 235.718 347.157 204.383 347.659 198.195C347.981 194.221 349.361 191.813 353.537 190.966Z"/>
	<path fill="#DF514F" transform="scale(2 2)" d="M61.7512 295.797L61.745 159.772C61.7443 137.557 60.7131 134.264 82.7542 134.299L293.141 134.304C299.132 134.303 305.158 134.158 311.143 134.366C326.281 134.892 323.481 150.088 323.478 160.453L323.466 295.797L191.215 295.786C188.239 295.781 183.409 295.296 180.696 295.797C175.178 293.112 171.544 290.027 165.421 288.131C145.042 281.822 135.44 287.047 119.034 295.626L118.702 295.797C115.825 295.286 106.841 295.804 103.393 295.806L61.7512 295.797Z"/>
</svg>
